<svg width="1421" height="709" viewBox="0 0 1421 709" fill="none" xmlns="http://www.w3.org/2000/svg">
<g clip-path="url(#clip0_11_14)">
<path d="M413.93 38.5455H463.077L496.884 120.932H498.589L532.396 38.5455H581.543V184H542.907V99.9091H541.771L509.384 182.864H486.089L453.702 99.3409H452.566V184H413.93V38.5455ZM638.042 184H595.428L643.44 38.5455H697.417L745.428 184H702.815L670.996 78.6023H669.86L638.042 184ZM630.087 126.614H710.201V156.159H630.087V126.614ZM759.438 184V38.5455H798.926V97.3523H800.915L844.665 38.5455H890.688L841.54 103.318L891.824 184H844.665L811.994 129.455L798.926 146.5V184H759.438ZM902.406 184V38.5455H1007.24V70.3636H941.895V95.3636H1001.84V127.182H941.895V152.182H1006.95V184H902.406ZM31.8984 280.545H81.0462L114.853 362.932H116.558L150.364 280.545H199.512V426H160.876V341.909H159.739L127.353 424.864H104.058L71.6712 341.341H70.5348V426H31.8984V280.545ZM354.022 335.091H313.965C313.681 331.777 312.924 328.77 311.692 326.071C310.509 323.372 308.852 321.052 306.721 319.111C304.638 317.122 302.104 315.607 299.121 314.565C296.138 313.476 292.753 312.932 288.965 312.932C282.336 312.932 276.726 314.542 272.133 317.761C267.587 320.981 264.131 325.598 261.763 331.611C259.443 337.624 258.283 344.845 258.283 353.273C258.283 362.174 259.467 369.632 261.835 375.645C264.249 381.611 267.729 386.109 272.275 389.139C276.82 392.122 282.289 393.614 288.681 393.614C292.327 393.614 295.594 393.164 298.482 392.264C301.371 391.317 303.88 389.968 306.011 388.216C308.141 386.464 309.87 384.357 311.195 381.895C312.568 379.385 313.492 376.568 313.965 373.443L354.022 373.727C353.549 379.883 351.82 386.156 348.837 392.548C345.854 398.893 341.617 404.764 336.124 410.162C330.679 415.512 323.932 419.821 315.883 423.088C307.834 426.355 298.482 427.989 287.829 427.989C274.477 427.989 262.497 425.124 251.891 419.395C241.333 413.666 232.976 405.238 226.82 394.111C220.712 382.984 217.658 369.371 217.658 353.273C217.658 337.08 220.783 323.443 227.033 312.364C233.283 301.237 241.711 292.832 252.317 287.151C262.924 281.421 274.761 278.557 287.829 278.557C297.014 278.557 305.466 279.812 313.184 282.321C320.902 284.83 327.673 288.5 333.496 293.33C339.32 298.112 344.008 304.007 347.559 311.014C351.11 318.022 353.264 326.047 354.022 335.091ZM466.398 328.557C465.782 326.047 464.812 323.846 463.486 321.952C462.16 320.01 460.503 318.377 458.514 317.051C456.573 315.678 454.3 314.66 451.696 313.997C449.139 313.287 446.322 312.932 443.244 312.932C436.616 312.932 430.957 314.518 426.27 317.69C421.63 320.863 418.079 325.432 415.616 331.398C413.202 337.364 411.994 344.561 411.994 352.989C411.994 361.511 413.154 368.803 415.474 374.864C417.795 380.924 421.251 385.564 425.844 388.784C430.437 392.004 436.142 393.614 442.96 393.614C448.973 393.614 453.969 392.738 457.946 390.986C461.971 389.234 464.977 386.748 466.966 383.528C468.955 380.309 469.949 376.521 469.949 372.165L476.767 372.875H443.528V344.75H508.017V364.92C508.017 378.178 505.2 389.518 499.565 398.94C493.978 408.315 486.26 415.512 476.412 420.531C466.611 425.503 455.366 427.989 442.676 427.989C428.519 427.989 416.09 424.982 405.389 418.969C394.688 412.955 386.331 404.385 380.318 393.259C374.352 382.132 371.369 368.898 371.369 353.557C371.369 341.53 373.192 330.877 376.838 321.597C380.531 312.316 385.645 304.48 392.179 298.088C398.713 291.649 406.265 286.795 414.835 283.528C423.405 280.214 432.591 278.557 442.392 278.557C451.009 278.557 459.011 279.788 466.398 282.25C473.831 284.665 480.389 288.121 486.071 292.619C491.8 297.07 496.417 302.349 499.92 308.457C503.424 314.565 505.555 321.265 506.312 328.557H466.398ZM612.509 280.545H651.998V373.727C651.998 384.807 649.346 394.395 644.043 402.491C638.788 410.541 631.449 416.767 622.026 421.17C612.604 425.527 601.666 427.705 589.214 427.705C576.666 427.705 565.682 425.527 556.259 421.17C546.837 416.767 539.498 410.541 534.242 402.491C529.034 394.395 526.43 384.807 526.43 373.727V280.545H565.918V370.318C565.918 374.816 566.913 378.841 568.901 382.392C570.89 385.896 573.636 388.642 577.14 390.631C580.691 392.619 584.716 393.614 589.214 393.614C593.759 393.614 597.784 392.619 601.288 390.631C604.791 388.642 607.538 385.896 609.526 382.392C611.515 378.841 612.509 374.816 612.509 370.318V280.545ZM710.254 280.545V426H670.766V280.545H710.254ZM854.821 280.545V426H821.866L769.31 349.58H768.457V426H728.969V280.545H762.491L814.196 356.682H815.332V280.545H854.821ZM999.352 280.545V426H966.398L913.841 349.58H912.989V426H873.5V280.545H907.023L958.727 356.682H959.864V280.545H999.352ZM1018.03 426V280.545H1122.86V312.364H1057.52V337.364H1117.46V369.182H1057.52V394.182H1122.58V426H1018.03ZM1220.85 326C1220.48 321.265 1218.7 317.572 1215.53 314.92C1212.4 312.269 1207.64 310.943 1201.25 310.943C1197.18 310.943 1193.84 311.44 1191.24 312.435C1188.68 313.382 1186.79 314.684 1185.56 316.341C1184.33 317.998 1183.69 319.892 1183.64 322.023C1183.54 323.775 1183.85 325.361 1184.56 326.781C1185.32 328.154 1186.5 329.409 1188.11 330.545C1189.72 331.634 1191.78 332.629 1194.29 333.528C1196.8 334.428 1199.78 335.233 1203.24 335.943L1215.17 338.5C1223.22 340.205 1230.11 342.454 1235.84 345.247C1241.57 348.041 1246.26 351.331 1249.9 355.119C1253.55 358.86 1256.22 363.074 1257.93 367.761C1259.68 372.449 1260.58 377.562 1260.63 383.102C1260.58 392.667 1258.19 400.763 1253.45 407.392C1248.72 414.021 1241.95 419.063 1233.14 422.52C1224.38 425.976 1213.85 427.705 1201.54 427.705C1188.89 427.705 1177.86 425.834 1168.44 422.094C1159.06 418.353 1151.77 412.6 1146.56 404.835C1141.4 397.023 1138.8 387.032 1138.75 374.864H1176.25C1176.49 379.314 1177.6 383.055 1179.59 386.085C1181.58 389.116 1184.37 391.412 1187.97 392.974C1191.62 394.537 1195.95 395.318 1200.97 395.318C1205.18 395.318 1208.71 394.797 1211.55 393.756C1214.39 392.714 1216.55 391.27 1218.01 389.423C1219.48 387.577 1220.24 385.47 1220.29 383.102C1220.24 380.877 1219.5 378.936 1218.08 377.278C1216.71 375.574 1214.44 374.059 1211.27 372.733C1208.09 371.36 1203.81 370.081 1198.41 368.898L1183.92 365.773C1171.04 362.979 1160.89 358.315 1153.45 351.781C1146.07 345.2 1142.4 336.227 1142.45 324.864C1142.4 315.631 1144.86 307.558 1149.83 300.645C1154.85 293.685 1161.79 288.263 1170.64 284.381C1179.54 280.498 1189.75 278.557 1201.25 278.557C1212.99 278.557 1223.15 280.522 1231.72 284.452C1240.29 288.382 1246.9 293.921 1251.54 301.071C1256.22 308.173 1258.59 316.483 1258.64 326H1220.85ZM1354.06 326C1353.68 321.265 1351.9 317.572 1348.73 314.92C1345.61 312.269 1340.85 310.943 1334.46 310.943C1330.38 310.943 1327.05 311.44 1324.44 312.435C1321.88 313.382 1319.99 314.684 1318.76 316.341C1317.53 317.998 1316.89 319.892 1316.84 322.023C1316.75 323.775 1317.05 325.361 1317.76 326.781C1318.52 328.154 1319.71 329.409 1321.32 330.545C1322.93 331.634 1324.99 332.629 1327.5 333.528C1330 334.428 1332.99 335.233 1336.44 335.943L1348.38 338.5C1356.42 340.205 1363.31 342.454 1369.04 345.247C1374.77 348.041 1379.46 351.331 1383.11 355.119C1386.75 358.86 1389.43 363.074 1391.13 367.761C1392.88 372.449 1393.78 377.562 1393.83 383.102C1393.78 392.667 1391.39 400.763 1386.66 407.392C1381.92 414.021 1375.15 419.063 1366.34 422.52C1357.58 425.976 1347.05 427.705 1334.74 427.705C1322.1 427.705 1311.07 425.834 1301.64 422.094C1292.27 418.353 1284.98 412.6 1279.77 404.835C1274.61 397.023 1272 387.032 1271.96 374.864H1309.46C1309.69 379.314 1310.8 383.055 1312.79 386.085C1314.78 389.116 1317.58 391.412 1321.17 392.974C1324.82 394.537 1329.15 395.318 1334.17 395.318C1338.39 395.318 1341.91 394.797 1344.75 393.756C1347.59 392.714 1349.75 391.27 1351.22 389.423C1352.68 387.577 1353.44 385.47 1353.49 383.102C1353.44 380.877 1352.71 378.936 1351.29 377.278C1349.91 375.574 1347.64 374.059 1344.47 372.733C1341.3 371.36 1337.01 370.081 1331.61 368.898L1317.13 365.773C1304.25 362.979 1294.09 358.315 1286.66 351.781C1279.27 345.2 1275.6 336.227 1275.65 324.864C1275.6 315.631 1278.06 307.558 1283.03 300.645C1288.05 293.685 1294.99 288.263 1303.84 284.381C1312.75 280.498 1322.95 278.557 1334.46 278.557C1346.2 278.557 1356.35 280.522 1364.92 284.452C1373.49 288.382 1380.1 293.921 1384.74 301.071C1389.43 308.173 1391.79 316.483 1391.84 326H1354.06ZM499.272 568C498.894 563.265 497.118 559.572 493.946 556.92C490.821 554.269 486.062 552.943 479.67 552.943C475.598 552.943 472.26 553.44 469.656 554.435C467.099 555.382 465.205 556.684 463.974 558.341C462.743 559.998 462.104 561.892 462.056 564.023C461.962 565.775 462.27 567.361 462.98 568.781C463.737 570.154 464.921 571.409 466.531 572.545C468.141 573.634 470.2 574.629 472.71 575.528C475.219 576.428 478.202 577.233 481.659 577.943L493.591 580.5C501.64 582.205 508.529 584.454 514.258 587.247C519.987 590.041 524.675 593.331 528.321 597.119C531.967 600.86 534.642 605.074 536.346 609.761C538.098 614.449 538.998 619.562 539.045 625.102C538.998 634.667 536.607 642.763 531.872 649.392C527.137 656.021 520.366 661.063 511.559 664.52C502.8 667.976 492.265 669.705 479.954 669.705C467.312 669.705 456.28 667.834 446.858 664.094C437.483 660.353 430.191 654.6 424.983 646.835C419.822 639.023 417.217 629.032 417.17 616.864H454.67C454.907 621.314 456.02 625.055 458.008 628.085C459.997 631.116 462.79 633.412 466.389 634.974C470.035 636.537 474.367 637.318 479.386 637.318C483.6 637.318 487.127 636.797 489.968 635.756C492.809 634.714 494.964 633.27 496.431 631.423C497.899 629.577 498.657 627.47 498.704 625.102C498.657 622.877 497.923 620.936 496.502 619.278C495.129 617.574 492.857 616.059 489.684 614.733C486.512 613.36 482.227 612.081 476.829 610.898L462.341 607.773C449.462 604.979 439.306 600.315 431.872 593.781C424.485 587.2 420.816 578.227 420.863 566.864C420.816 557.631 423.278 549.558 428.25 542.645C433.269 535.685 440.205 530.263 449.059 526.381C457.961 522.498 468.164 520.557 479.67 520.557C491.413 520.557 501.569 522.522 510.139 526.452C518.709 530.382 525.314 535.921 529.954 543.071C534.642 550.173 537.009 558.483 537.056 568H499.272ZM586.186 668H543.573L591.584 522.545H645.561L693.573 668H650.959L619.141 562.602H618.005L586.186 668ZM578.232 610.614H658.346V640.159H578.232V610.614ZM707.582 668V522.545H809.855V554.364H747.071V579.364H803.605V611.182H747.071V668H707.582ZM824.379 668V522.545H929.208V554.364H863.868V579.364H923.811V611.182H863.868V636.182H928.924V668H824.379ZM994.816 522.545L991.123 622.545H958.736L955.043 522.545H994.816ZM974.929 670.273C969.437 670.273 964.726 668.355 960.796 664.52C956.913 660.637 954.996 655.926 955.043 650.386C954.996 644.989 956.913 640.372 960.796 636.537C964.726 632.702 969.437 630.784 974.929 630.784C980.138 630.784 984.73 632.702 988.708 636.537C992.732 640.372 994.768 644.989 994.816 650.386C994.768 654.08 993.798 657.441 991.904 660.472C990.057 663.455 987.642 665.846 984.659 667.645C981.676 669.397 978.433 670.273 974.929 670.273Z" fill="white"/>
<path d="M398.93 26.5455H448.077L481.884 108.932H483.589L517.396 26.5455H566.543V172H527.907V87.9091H526.771L494.384 170.864H471.089L438.702 87.3409H437.566V172H398.93V26.5455ZM623.042 172H580.428L628.44 26.5455H682.417L730.428 172H687.815L655.996 66.6023H654.86L623.042 172ZM615.087 114.614H695.201V144.159H615.087V114.614ZM744.438 172V26.5455H783.926V85.3523H785.915L829.665 26.5455H875.688L826.54 91.3182L876.824 172H829.665L796.994 117.455L783.926 134.5V172H744.438ZM887.406 172V26.5455H992.236V58.3636H926.895V83.3636H986.838V115.182H926.895V140.182H991.952V172H887.406ZM16.8984 268.545H66.0462L99.853 350.932H101.558L135.364 268.545H184.512V414H145.876V329.909H144.739L112.353 412.864H89.0575L56.6712 329.341H55.5348V414H16.8984V268.545ZM339.022 323.091H298.965C298.681 319.777 297.924 316.77 296.692 314.071C295.509 311.372 293.852 309.052 291.721 307.111C289.638 305.122 287.104 303.607 284.121 302.565C281.138 301.476 277.753 300.932 273.965 300.932C267.336 300.932 261.726 302.542 257.133 305.761C252.587 308.981 249.131 313.598 246.763 319.611C244.443 325.624 243.283 332.845 243.283 341.273C243.283 350.174 244.467 357.632 246.835 363.645C249.249 369.611 252.729 374.109 257.275 377.139C261.82 380.122 267.289 381.614 273.681 381.614C277.327 381.614 280.594 381.164 283.482 380.264C286.371 379.317 288.88 377.968 291.011 376.216C293.141 374.464 294.87 372.357 296.195 369.895C297.568 367.385 298.492 364.568 298.965 361.443L339.022 361.727C338.549 367.883 336.82 374.156 333.837 380.548C330.854 386.893 326.617 392.764 321.124 398.162C315.679 403.512 308.932 407.821 300.883 411.088C292.834 414.355 283.482 415.989 272.829 415.989C259.477 415.989 247.497 413.124 236.891 407.395C226.333 401.666 217.976 393.238 211.82 382.111C205.712 370.984 202.658 357.371 202.658 341.273C202.658 325.08 205.783 311.443 212.033 300.364C218.283 289.237 226.711 280.832 237.317 275.151C247.924 269.421 259.761 266.557 272.829 266.557C282.014 266.557 290.466 267.812 298.184 270.321C305.902 272.83 312.673 276.5 318.496 281.33C324.32 286.112 329.008 292.007 332.559 299.014C336.11 306.022 338.264 314.047 339.022 323.091ZM451.398 316.557C450.782 314.047 449.812 311.846 448.486 309.952C447.16 308.01 445.503 306.377 443.514 305.051C441.573 303.678 439.3 302.66 436.696 301.997C434.139 301.287 431.322 300.932 428.244 300.932C421.616 300.932 415.957 302.518 411.27 305.69C406.63 308.863 403.079 313.432 400.616 319.398C398.202 325.364 396.994 332.561 396.994 340.989C396.994 349.511 398.154 356.803 400.474 362.864C402.795 368.924 406.251 373.564 410.844 376.784C415.437 380.004 421.142 381.614 427.96 381.614C433.973 381.614 438.969 380.738 442.946 378.986C446.971 377.234 449.977 374.748 451.966 371.528C453.955 368.309 454.949 364.521 454.949 360.165L461.767 360.875H428.528V332.75H493.017V352.92C493.017 366.178 490.2 377.518 484.565 386.94C478.978 396.315 471.26 403.512 461.412 408.531C451.611 413.503 440.366 415.989 427.676 415.989C413.519 415.989 401.09 412.982 390.389 406.969C379.688 400.955 371.331 392.385 365.318 381.259C359.352 370.132 356.369 356.898 356.369 341.557C356.369 329.53 358.192 318.877 361.838 309.597C365.531 300.316 370.645 292.48 377.179 286.088C383.713 279.649 391.265 274.795 399.835 271.528C408.405 268.214 417.591 266.557 427.392 266.557C436.009 266.557 444.011 267.788 451.398 270.25C458.831 272.665 465.389 276.121 471.071 280.619C476.8 285.07 481.417 290.349 484.92 296.457C488.424 302.565 490.555 309.265 491.312 316.557H451.398ZM597.509 268.545H636.998V361.727C636.998 372.807 634.346 382.395 629.043 390.491C623.788 398.541 616.449 404.767 607.026 409.17C597.604 413.527 586.666 415.705 574.214 415.705C561.666 415.705 550.682 413.527 541.259 409.17C531.837 404.767 524.498 398.541 519.242 390.491C514.034 382.395 511.43 372.807 511.43 361.727V268.545H550.918V358.318C550.918 362.816 551.913 366.841 553.901 370.392C555.89 373.896 558.636 376.642 562.14 378.631C565.691 380.619 569.716 381.614 574.214 381.614C578.759 381.614 582.784 380.619 586.288 378.631C589.791 376.642 592.538 373.896 594.526 370.392C596.515 366.841 597.509 362.816 597.509 358.318V268.545ZM695.254 268.545V414H655.766V268.545H695.254ZM839.821 268.545V414H806.866L754.31 337.58H753.457V414H713.969V268.545H747.491L799.196 344.682H800.332V268.545H839.821ZM984.352 268.545V414H951.398L898.841 337.58H897.989V414H858.5V268.545H892.023L943.727 344.682H944.864V268.545H984.352ZM1003.03 414V268.545H1107.86V300.364H1042.52V325.364H1102.46V357.182H1042.52V382.182H1107.58V414H1003.03ZM1205.85 314C1205.48 309.265 1203.7 305.572 1200.53 302.92C1197.4 300.269 1192.64 298.943 1186.25 298.943C1182.18 298.943 1178.84 299.44 1176.24 300.435C1173.68 301.382 1171.79 302.684 1170.56 304.341C1169.33 305.998 1168.69 307.892 1168.64 310.023C1168.54 311.775 1168.85 313.361 1169.56 314.781C1170.32 316.154 1171.5 317.409 1173.11 318.545C1174.72 319.634 1176.78 320.629 1179.29 321.528C1181.8 322.428 1184.78 323.233 1188.24 323.943L1200.17 326.5C1208.22 328.205 1215.11 330.454 1220.84 333.247C1226.57 336.041 1231.26 339.331 1234.9 343.119C1238.55 346.86 1241.22 351.074 1242.93 355.761C1244.68 360.449 1245.58 365.562 1245.63 371.102C1245.58 380.667 1243.19 388.763 1238.45 395.392C1233.72 402.021 1226.95 407.063 1218.14 410.52C1209.38 413.976 1198.85 415.705 1186.54 415.705C1173.89 415.705 1162.86 413.834 1153.44 410.094C1144.06 406.353 1136.77 400.6 1131.56 392.835C1126.4 385.023 1123.8 375.032 1123.75 362.864H1161.25C1161.49 367.314 1162.6 371.055 1164.59 374.085C1166.58 377.116 1169.37 379.412 1172.97 380.974C1176.62 382.537 1180.95 383.318 1185.97 383.318C1190.18 383.318 1193.71 382.797 1196.55 381.756C1199.39 380.714 1201.55 379.27 1203.01 377.423C1204.48 375.577 1205.24 373.47 1205.29 371.102C1205.24 368.877 1204.5 366.936 1203.08 365.278C1201.71 363.574 1199.44 362.059 1196.27 360.733C1193.09 359.36 1188.81 358.081 1183.41 356.898L1168.92 353.773C1156.04 350.979 1145.89 346.315 1138.45 339.781C1131.07 333.2 1127.4 324.227 1127.45 312.864C1127.4 303.631 1129.86 295.558 1134.83 288.645C1139.85 281.685 1146.79 276.263 1155.64 272.381C1164.54 268.498 1174.75 266.557 1186.25 266.557C1197.99 266.557 1208.15 268.522 1216.72 272.452C1225.29 276.382 1231.9 281.921 1236.54 289.071C1241.22 296.173 1243.59 304.483 1243.64 314H1205.85ZM1339.06 314C1338.68 309.265 1336.9 305.572 1333.73 302.92C1330.61 300.269 1325.85 298.943 1319.46 298.943C1315.38 298.943 1312.05 299.44 1309.44 300.435C1306.88 301.382 1304.99 302.684 1303.76 304.341C1302.53 305.998 1301.89 307.892 1301.84 310.023C1301.75 311.775 1302.05 313.361 1302.76 314.781C1303.52 316.154 1304.71 317.409 1306.32 318.545C1307.93 319.634 1309.99 320.629 1312.5 321.528C1315 322.428 1317.99 323.233 1321.44 323.943L1333.38 326.5C1341.42 328.205 1348.31 330.454 1354.04 333.247C1359.77 336.041 1364.46 339.331 1368.11 343.119C1371.75 346.86 1374.43 351.074 1376.13 355.761C1377.88 360.449 1378.78 365.562 1378.83 371.102C1378.78 380.667 1376.39 388.763 1371.66 395.392C1366.92 402.021 1360.15 407.063 1351.34 410.52C1342.58 413.976 1332.05 415.705 1319.74 415.705C1307.1 415.705 1296.07 413.834 1286.64 410.094C1277.27 406.353 1269.98 400.6 1264.77 392.835C1259.61 385.023 1257 375.032 1256.96 362.864H1294.46C1294.69 367.314 1295.8 371.055 1297.79 374.085C1299.78 377.116 1302.58 379.412 1306.17 380.974C1309.82 382.537 1314.15 383.318 1319.17 383.318C1323.39 383.318 1326.91 382.797 1329.75 381.756C1332.59 380.714 1334.75 379.27 1336.22 377.423C1337.68 375.577 1338.44 373.47 1338.49 371.102C1338.44 368.877 1337.71 366.936 1336.29 365.278C1334.91 363.574 1332.64 362.059 1329.47 360.733C1326.3 359.36 1322.01 358.081 1316.61 356.898L1302.13 353.773C1289.25 350.979 1279.09 346.315 1271.66 339.781C1264.27 333.2 1260.6 324.227 1260.65 312.864C1260.6 303.631 1263.06 295.558 1268.03 288.645C1273.05 281.685 1279.99 276.263 1288.84 272.381C1297.75 268.498 1307.95 266.557 1319.46 266.557C1331.2 266.557 1341.35 268.522 1349.92 272.452C1358.49 276.382 1365.1 281.921 1369.74 289.071C1374.43 296.173 1376.79 304.483 1376.84 314H1339.06ZM484.272 556C483.894 551.265 482.118 547.572 478.946 544.92C475.821 542.269 471.062 540.943 464.67 540.943C460.598 540.943 457.26 541.44 454.656 542.435C452.099 543.382 450.205 544.684 448.974 546.341C447.743 547.998 447.104 549.892 447.056 552.023C446.962 553.775 447.27 555.361 447.98 556.781C448.737 558.154 449.921 559.409 451.531 560.545C453.141 561.634 455.2 562.629 457.71 563.528C460.219 564.428 463.202 565.233 466.659 565.943L478.591 568.5C486.64 570.205 493.529 572.454 499.258 575.247C504.987 578.041 509.675 581.331 513.321 585.119C516.967 588.86 519.642 593.074 521.346 597.761C523.098 602.449 523.998 607.562 524.045 613.102C523.998 622.667 521.607 630.763 516.872 637.392C512.137 644.021 505.366 649.063 496.559 652.52C487.8 655.976 477.265 657.705 464.954 657.705C452.312 657.705 441.28 655.834 431.858 652.094C422.483 648.353 415.191 642.6 409.983 634.835C404.822 627.023 402.217 617.032 402.17 604.864H439.67C439.907 609.314 441.02 613.055 443.008 616.085C444.997 619.116 447.79 621.412 451.389 622.974C455.035 624.537 459.367 625.318 464.386 625.318C468.6 625.318 472.127 624.797 474.968 623.756C477.809 622.714 479.964 621.27 481.431 619.423C482.899 617.577 483.657 615.47 483.704 613.102C483.657 610.877 482.923 608.936 481.502 607.278C480.129 605.574 477.857 604.059 474.684 602.733C471.512 601.36 467.227 600.081 461.829 598.898L447.341 595.773C434.462 592.979 424.306 588.315 416.872 581.781C409.485 575.2 405.816 566.227 405.863 554.864C405.816 545.631 408.278 537.558 413.25 530.645C418.269 523.685 425.205 518.263 434.059 514.381C442.961 510.498 453.164 508.557 464.67 508.557C476.413 508.557 486.569 510.522 495.139 514.452C503.709 518.382 510.314 523.921 514.954 531.071C519.642 538.173 522.009 546.483 522.056 556H484.272ZM571.186 656H528.573L576.584 510.545H630.561L678.573 656H635.959L604.141 550.602H603.005L571.186 656ZM563.232 598.614H643.346V628.159H563.232V598.614ZM692.582 656V510.545H794.855V542.364H732.071V567.364H788.605V599.182H732.071V656H692.582ZM809.379 656V510.545H914.208V542.364H848.868V567.364H908.811V599.182H848.868V624.182H913.924V656H809.379ZM979.816 510.545L976.123 610.545H943.736L940.043 510.545H979.816ZM959.929 658.273C954.437 658.273 949.726 656.355 945.796 652.52C941.913 648.637 939.996 643.926 940.043 638.386C939.996 632.989 941.913 628.372 945.796 624.537C949.726 620.702 954.437 618.784 959.929 618.784C965.138 618.784 969.73 620.702 973.708 624.537C977.732 628.372 979.768 632.989 979.816 638.386C979.768 642.08 978.798 645.441 976.904 648.472C975.057 651.455 972.642 653.846 969.659 655.645C966.676 657.397 963.433 658.273 959.929 658.273Z" fill="black"/>
</g>
<defs>
<clipPath id="clip0_11_14">
<rect width="1421" height="709" fill="white"/>
</clipPath>
</defs>
</svg>
