<svg width="150" height="156" viewBox="0 0 150 156" fill="none" xmlns="http://www.w3.org/2000/svg">
<path d="M71.3278 2.50405C72.7178 -0.714937 77.2822 -0.714943 78.6722 2.50405L88.773 25.8949C89.7286 28.108 92.4101 28.9792 94.484 27.7506L116.405 14.764C119.421 12.9768 123.114 15.6597 122.346 19.081L116.769 43.9417C116.241 46.2938 117.899 48.5748 120.299 48.7998L145.666 51.178C149.157 51.5052 150.568 55.8463 147.936 58.163L128.811 74.9975C127.002 76.5903 127.002 79.4097 128.811 81.0025L147.936 97.837C150.568 100.154 149.157 104.495 145.666 104.822L120.299 107.2C117.899 107.425 116.241 109.706 116.769 112.058L122.346 136.919C123.114 140.34 119.421 143.023 116.405 141.236L94.484 128.249C92.4101 127.021 89.7286 127.892 88.773 130.105L78.6722 153.496C77.2822 156.715 72.7178 156.715 71.3278 153.496L61.227 130.105C60.2714 127.892 57.5899 127.021 55.516 128.249L33.5955 141.236C30.5789 143.023 26.8862 140.34 27.6537 136.919L33.2308 112.058C33.7585 109.706 32.1013 107.425 29.7012 107.2L4.33387 104.822C0.842887 104.495 -0.567601 100.154 2.06429 97.837L21.189 81.0025C22.9985 79.4097 22.9985 76.5903 21.189 74.9975L2.0643 58.163C-0.567598 55.8463 0.842881 51.5052 4.33386 51.178L29.7012 48.7998C32.1013 48.5748 33.7585 46.2938 33.2308 43.9417L27.6537 19.081C26.8862 15.6597 30.5789 12.9768 33.5955 14.764L55.516 27.7506C57.5899 28.9792 60.2714 28.108 61.227 25.8949L71.3278 2.50405Z" fill="black"/>
</svg>
